<svg xmlns="http://www.w3.org/2000/svg" width="1050" height="680" viewBox="0 0 1050 680">
<rect width="1050" height="680" fill="#0d1822"/>
<rect x="55" y="45" width="940" height="590" rx="8" fill="#2f853b"/>
<g opacity=".15" fill="#c7f5c5"><path d="M55 45h117.5v590H55z"/><path d="M290 45h117.5v590H290z"/><path d="M525 45h117.5v590H525z"/><path d="M760 45h117.5v590H760z"/></g>
<rect x="70" y="60" width="910" height="560" fill="none" stroke="#fff" stroke-width="6"/>
<line x1="525" y1="60" x2="525" y2="620" stroke="#fff" stroke-width="5"/>
<circle cx="525" cy="340" r="82" fill="none" stroke="#fff" stroke-width="5"/><circle cx="525" cy="340" r="7" fill="#fff"/>
<rect x="70" y="195" width="145" height="290" fill="none" stroke="#fff" stroke-width="5"/><rect x="835" y="195" width="145" height="290" fill="none" stroke="#fff" stroke-width="5"/>
<rect x="70" y="255" width="55" height="170" fill="none" stroke="#fff" stroke-width="4"/><rect x="925" y="255" width="55" height="170" fill="none" stroke="#fff" stroke-width="4"/>
<text x="525" y="31" text-anchor="middle" fill="#fff" font-family="Arial" font-size="28" font-weight="700">Homography Result — Normalized Top-Down View</text>
<g font-family="Arial" font-size="18" fill="#ffd400" font-weight="700"><text x="75" y="86">1</text><text x="962" y="86">2</text><text x="958" y="610">3</text><text x="75" y="610">4</text></g>
</svg>